<svg version="1.1" id="Layer_1" xmlns="http://www.w3.org/2000/svg" xmlns:xlink="http://www.w3.org/1999/xlink" x="0px" y="0px"
	 width="100%" viewBox="0 0 1024 1024" enable-background="new 0 0 1024 1024" xml:space="preserve">
<path fill="#000000" opacity="1.000000" stroke="none" 
	d="
M230.103088,429.295837 
	C220.665802,427.743378 212.141769,424.458252 202.393814,421.444244 
	C207.951370,441.488861 209.112823,461.138489 209.229141,480.874084 
	C209.344406,500.430542 209.254364,519.988220 208.134491,539.642090 
	C207.612320,535.253052 207.090149,530.863953 206.559372,526.402588 
	C204.907074,525.852661 205.755157,527.948486 204.343781,528.026733 
	C203.769791,526.274658 203.148148,524.377075 202.501755,522.403992 
	C200.920746,523.227661 203.148468,525.117676 201.174133,525.787720 
	C195.305862,499.681519 191.720169,473.275543 189.772186,446.600006 
	C189.145630,446.657684 188.519058,446.715363 187.892502,446.773041 
	C187.415985,451.155365 186.836731,455.529358 186.480820,459.921448 
	C184.984833,478.382294 180.322906,496.212372 175.752258,514.057434 
	C171.261505,531.590454 167.669220,549.266235 165.169464,567.223145 
	C162.787277,584.335632 162.462036,601.401001 164.462387,618.448364 
	C166.613480,636.780396 173.005600,653.909973 181.182602,670.390930 
	C186.090286,680.282410 192.105515,689.425842 199.386108,697.734131 
	C201.639572,700.305725 202.460983,704.093811 206.750732,705.486877 
	C203.605331,708.345459 204.827347,709.815796 207.418274,711.982971 
	C212.698517,716.399719 218.475510,719.925842 224.374741,723.344177 
	C225.763275,724.148804 227.444397,724.663208 228.249237,726.864563 
	C218.611893,725.665771 210.497421,720.533386 200.830719,717.855896 
	C202.714691,723.608215 208.465897,723.766113 211.632416,727.679199 
	C207.508118,727.989197 204.430084,726.320740 201.531830,724.817566 
	C180.168640,713.738464 163.447052,697.908752 151.759201,676.673218 
	C142.571487,659.980164 136.578857,642.231873 133.995560,623.515869 
	C131.813950,607.710083 132.121017,591.785278 134.010223,575.804199 
	C139.145187,532.366455 158.425171,494.220215 177.766052,456.050262 
	C180.390274,450.871246 183.344589,445.848328 186.383957,440.899200 
	C187.084976,439.757721 187.154053,438.835236 187.088531,437.686493 
	C186.700729,430.887939 186.262589,424.090973 185.992157,417.287506 
	C185.873413,414.300537 184.630920,412.411743 181.946228,411.026031 
	C152.729874,395.945709 129.288116,374.510010 114.484192,345.099518 
	C107.008759,330.248322 97.009026,317.247528 88.615913,303.126526 
	C85.239601,297.446075 83.270081,291.318695 81.990654,284.931061 
	C81.274536,281.355774 81.597969,277.430847 84.318893,275.096985 
	C95.058342,265.885101 100.333092,253.196503 106.764359,241.212418 
	C116.960266,222.213226 128.860596,204.534317 144.636017,189.541077 
	C162.479416,172.582382 179.689056,154.957535 197.500565,137.964340 
	C206.689255,129.197830 217.881897,125.564262 230.601730,128.494095 
	C234.826904,129.467316 237.905106,127.898285 241.130035,125.484505 
	C249.522705,119.202797 258.001984,113.123741 268.265106,109.933319 
	C279.471313,106.449722 290.860474,106.567978 302.311798,107.221367 
	C314.932159,107.941452 327.224731,111.281944 339.710510,112.542343 
	C346.700043,113.247910 354.132660,111.919060 361.388123,111.703224 
	C378.220001,111.202499 392.566742,117.097656 405.171692,127.875038 
	C408.842010,131.013214 412.464691,134.210770 416.217072,137.247849 
	C418.369720,138.990189 419.454193,140.935287 418.522064,143.705994 
	C414.531464,145.913254 411.421051,144.133362 408.283417,141.613159 
	C392.432861,128.881699 374.126831,121.116417 354.818329,115.421585 
	C353.439209,115.014832 353.356232,115.057503 349.342285,116.029961 
	C367.505188,124.608124 379.454407,137.957230 388.234589,155.948441 
	C383.477936,153.618225 381.372925,150.128708 378.906555,147.277451 
	C366.370422,132.785034 350.103027,124.938553 331.949646,120.522972 
	C316.900360,116.862434 301.653381,114.788383 286.056702,115.250252 
	C271.503387,115.681229 258.258087,119.890228 245.906250,127.321938 
	C244.531784,128.148911 242.639755,128.913528 242.996262,130.953781 
	C243.345627,132.953232 245.175385,133.899872 246.903000,134.439087 
	C248.101501,134.813171 249.511063,134.511047 251.225250,134.511047 
	C251.096939,137.863037 253.236389,139.472504 255.789856,140.782806 
	C257.699402,139.540695 257.546997,136.615356 260.256256,135.996933 
	C261.109894,138.721695 258.405701,141.286743 259.722198,143.992279 
	C261.889069,144.157425 262.466309,141.268112 264.638184,141.812744 
	C266.259033,143.383041 263.638977,145.277893 265.144745,147.206528 
	C267.584778,146.414536 267.815704,143.172073 270.506836,142.189819 
	C270.938110,144.090652 269.914032,145.567978 269.394440,147.140244 
	C266.571045,155.683640 263.566895,164.165985 259.539581,172.223495 
	C255.033569,181.238739 257.146790,190.302460 258.821625,199.458344 
	C262.976166,222.169785 273.250061,242.198883 285.648926,261.317200 
	C288.570587,265.822205 288.192352,267.552856 283.451080,269.502838 
	C288.643799,276.287842 293.827484,282.986633 297.889709,290.451996 
	C306.834320,306.889801 311.035248,324.757843 314.572906,342.951050 
	C315.732605,348.915131 317.014099,355.344788 317.077820,360.885010 
	C317.213287,372.655121 314.473755,384.586731 308.935364,395.448456 
	C303.575928,405.959167 295.979584,414.418335 285.638092,420.165588 
	C268.391693,429.750214 249.785080,431.547241 230.103088,429.295837 
M235.661652,146.862549 
	C228.143707,143.120316 219.877884,142.832733 211.852676,142.776764 
	C206.236069,142.737595 199.403900,143.298004 195.791077,148.076569 
	C190.490845,155.087006 185.223923,162.118118 179.702667,168.963623 
	C178.946808,169.900742 178.060120,171.114929 178.529816,172.534531 
	C179.961609,174.148117 181.078125,170.973236 182.468475,172.342072 
	C182.351212,173.160889 182.238678,173.946838 182.016830,175.496048 
	C184.297958,172.789444 186.020676,170.745407 187.743393,168.701385 
	C187.443283,171.637680 186.153137,173.886230 185.086136,176.236115 
	C184.016052,178.592804 182.490540,180.934006 183.569717,183.500580 
	C189.292526,185.573883 189.650513,179.413177 193.322205,177.401840 
	C193.782349,181.965424 197.033463,177.949432 198.284225,178.978790 
	C199.588150,181.168259 197.285477,183.311249 199.562943,185.307434 
	C202.915756,181.210068 203.656219,175.172012 209.466995,173.512390 
	C209.901627,175.873596 208.376892,178.732727 211.669342,181.476593 
	C212.203598,176.351227 214.045151,172.198853 215.223358,167.876282 
	C217.250702,168.237076 215.737411,170.138763 216.954041,170.671463 
	C218.081223,170.379288 217.645966,167.914856 219.980896,168.817276 
	C217.572678,174.961426 216.392639,181.100800 217.696320,187.771713 
	C221.115616,205.268066 226.622742,221.879578 237.336563,236.333389 
	C240.895660,241.134888 243.920792,246.525284 248.931870,250.424164 
	C250.603516,247.883804 250.604477,246.097244 248.947433,244.098373 
	C243.124680,237.074432 239.387939,228.845840 236.551529,220.323044 
	C229.092834,197.911316 226.472839,175.338745 235.859650,152.697174 
	C236.563995,150.998230 237.127640,149.235733 235.661652,146.862549 
M104.785385,281.927887 
	C106.808617,287.587952 109.082756,293.124786 112.543571,298.181213 
	C111.472672,280.545593 115.152397,263.860260 121.031601,247.480408 
	C115.158279,254.617813 112.086769,263.082214 108.423111,271.202576 
	C106.962448,274.440094 104.001396,277.184998 104.785385,281.927887 
M126.303520,326.977570 
	C121.752403,318.518646 120.089195,309.122864 117.658127,299.053406 
	C116.525581,309.555786 123.247658,328.823608 129.077835,332.675629 
	C128.202850,330.892487 127.402275,329.260895 126.303520,326.977570 
M180.386414,392.270660 
	C183.659180,394.605042 186.931946,396.939423 190.204712,399.273834 
	C190.407928,398.964752 190.611145,398.655701 190.814362,398.346619 
	C186.395432,395.124512 181.976501,391.902405 177.063797,388.320251 
	C177.558533,390.552948 178.950714,390.987946 180.386414,392.270660 
M147.778595,360.427094 
	C145.971252,358.340332 144.163910,356.253601 142.356583,354.166840 
	C142.115448,354.399048 141.874329,354.631256 141.633209,354.863464 
	C144.287689,357.881897 146.942184,360.900330 149.931915,364.299988 
	C149.916534,362.364899 148.726074,361.853058 147.778595,360.427094 
M170.769180,382.877136 
	C168.379547,380.843201 165.989914,378.809265 163.600281,376.775360 
	C165.706757,379.437439 166.958481,383.209534 170.769180,382.877136 
M134.686401,344.770050 
	C135.725143,346.118927 136.763885,347.467773 137.802643,348.816650 
	C136.241455,345.352142 134.830368,341.835480 131.462204,339.692047 
	C132.418365,341.193909 133.374527,342.695740 134.686401,344.770050 
z"/>
<path fill="#000000" opacity="1.000000" stroke="none" 
	d="
M486.263184,227.931458 
	C488.411133,227.205963 490.058807,226.916214 490.880341,229.415115 
	C491.497040,231.291122 492.399628,233.077225 493.228577,234.878662 
	C495.694672,240.238022 496.713806,240.177673 501.536926,236.925201 
	C509.637909,231.462296 518.718994,228.261688 528.444397,227.005844 
	C531.170044,226.653854 534.088135,227.267303 536.642517,225.601715 
	C535.881714,223.748886 534.358887,224.047440 533.135925,223.981445 
	C524.833862,223.533585 516.528870,223.132889 508.221832,222.789215 
	C504.104706,222.618881 500.751221,224.863647 496.770477,227.553406 
	C499.791962,220.653732 502.630219,219.867126 517.805481,220.231293 
	C500.621338,215.906250 482.249634,215.582809 466.689026,205.701477 
	C466.499969,204.198090 468.239838,204.977493 468.796112,204.138840 
	C465.942841,201.195236 461.736328,200.557236 458.259705,197.838974 
	C460.810638,196.069321 462.767456,197.679382 464.791168,197.860107 
	C463.554169,194.405518 460.900787,193.061066 457.820740,192.002380 
	C447.530304,188.465363 437.862030,183.703644 429.306427,176.877625 
	C422.614319,171.538361 420.354828,164.450439 421.510437,156.204681 
	C422.310577,150.495377 429.489502,146.789230 435.758270,149.066574 
	C431.376648,151.825333 432.909943,154.734741 434.765717,158.231125 
	C437.349701,163.099411 438.951050,168.417877 437.351410,174.080170 
	C436.385620,177.498993 437.728088,179.639908 440.579163,181.539719 
	C449.043427,187.179825 458.628174,190.019623 468.210602,192.790771 
	C487.084442,198.248917 505.929871,203.719299 522.865112,214.133972 
	C523.085510,216.007950 520.837769,214.758743 520.604370,215.786758 
	C524.238953,219.092117 528.833740,219.449142 533.282227,220.450623 
	C543.671692,222.789612 549.469360,231.889191 546.047302,241.863098 
	C539.664734,260.465546 531.728149,278.445587 520.468323,294.700867 
	C517.053284,299.630981 512.587463,303.490997 506.125946,304.684570 
	C503.770691,305.119598 501.539062,307.363800 499.691132,309.220612 
	C487.508026,321.462189 472.056366,325.142273 455.623444,326.290924 
	C448.830109,326.765808 442.012939,326.920746 435.226715,327.469635 
	C429.381622,327.942352 427.658905,330.135010 429.445679,335.456757 
	C435.563141,353.677032 443.223389,371.186462 454.948669,386.606415 
	C456.732880,388.952911 458.505737,393.090363 462.018433,391.762177 
	C466.208771,390.177643 463.188354,386.270996 462.912201,383.405151 
	C461.300507,366.679108 455.768738,351.049377 449.367126,335.671906 
	C448.934479,334.632629 448.635101,333.537903 447.966064,331.558746 
	C450.968231,333.161987 452.114441,335.333649 453.397247,337.244019 
	C464.665466,354.024597 472.684265,372.202209 475.946106,392.220001 
	C476.842285,397.719818 477.284637,403.493408 475.183319,408.991913 
	C471.737274,418.009277 462.127258,420.239014 453.949158,414.129242 
	C443.478058,406.306427 436.990814,395.486237 431.167328,384.196533 
	C424.279388,370.843262 419.494324,356.678497 415.653259,342.182831 
	C415.440887,341.381287 415.308777,340.556549 415.172943,339.737000 
	C414.870453,337.912079 416.099548,335.306458 413.310699,334.677887 
	C410.545410,334.054535 408.520905,335.743011 407.150879,337.997314 
	C403.332245,344.280457 401.830872,351.435669 401.544037,358.495697 
	C400.740173,378.282715 401.550049,397.921234 405.905457,417.489502 
	C408.137085,427.516022 414.787109,433.057648 421.370178,439.079956 
	C434.831909,451.394989 445.235199,465.915680 453.262695,482.146240 
	C455.617859,486.908020 458.264923,489.037415 463.848999,488.809052 
	C480.606232,488.123779 497.389465,487.755829 514.160950,487.805908 
	C544.137695,487.895355 573.973450,489.929688 602.987915,498.102692 
	C622.677795,503.649017 640.865784,512.580383 657.701721,524.307251 
	C669.590332,532.588196 680.530884,541.940430 690.854675,552.055847 
	C693.225647,554.378967 695.543945,556.683350 696.462097,560.146301 
	C696.848206,561.602478 698.212158,563.026428 699.492798,563.979858 
	C705.731628,568.624634 708.325256,575.474915 711.277039,582.245117 
	C713.005554,586.209595 715.298523,590.356934 716.375305,594.155640 
	C718.441406,601.444702 723.845581,608.054932 723.496643,615.405823 
	C723.009155,625.674438 729.479187,632.954346 731.622681,641.946594 
	C731.135498,627.791687 724.505432,615.056946 722.313477,601.307739 
	C726.813416,606.027771 728.852112,611.601929 729.662109,617.722168 
	C729.977722,620.106873 729.931763,622.810852 733.203918,623.599487 
	C734.490479,623.909546 734.861023,625.372742 734.684082,626.476135 
	C733.504028,633.834106 734.890991,640.886658 737.014771,647.906616 
	C739.111694,647.576965 739.046448,645.131287 740.564209,644.091492 
	C743.313843,647.874268 737.520935,649.198425 738.347900,652.422546 
	C739.091003,655.319519 741.776917,657.900330 739.960449,661.469055 
	C737.235779,659.751709 739.088989,655.343933 734.535034,653.986633 
	C734.262329,665.555359 738.421936,676.354126 738.174377,687.381775 
	C737.928406,698.331543 741.333191,709.113770 739.612976,720.934753 
	C737.096069,718.895569 736.865601,716.808350 736.887634,714.734314 
	C737.032776,701.075378 734.391541,687.719055 732.544800,674.277405 
	C732.436951,673.492615 732.161316,672.254944 731.658630,672.073486 
	C726.363342,670.162170 725.848511,664.999512 726.654785,661.374939 
	C728.727905,652.054810 723.754333,644.709106 721.355469,636.672974 
	C716.121338,619.138306 707.843628,602.986938 697.343750,588.086304 
	C687.183960,573.668396 676.569885,559.536377 662.650146,548.361084 
	C660.943787,546.991150 659.449890,545.941528 656.639465,545.966675 
	C653.423279,545.995483 650.043030,542.738953 649.100708,539.665771 
	C647.969299,535.976013 645.745300,534.591309 642.735901,533.382080 
	C640.201111,532.363586 637.056946,532.183594 636.567566,528.257690 
	C633.774414,529.708679 631.840637,529.071106 629.625977,527.801880 
	C611.427673,517.372009 591.985107,510.228851 571.351074,506.403961 
	C563.518005,504.951935 555.654358,503.665649 547.810791,502.269409 
	C546.045715,501.955200 544.232849,501.649658 542.734741,499.704956 
	C547.563965,497.624115 551.456848,501.774872 556.235962,501.520721 
	C550.323486,496.750549 471.695923,490.140503 459.402771,493.280060 
	C468.983002,518.893127 478.847260,544.479492 477.054749,573.126099 
	C473.476776,571.363220 475.470398,567.331787 472.643341,565.710754 
	C470.078735,567.421875 473.218048,569.138489 472.906250,570.175415 
	C465.665710,574.397156 470.649933,582.075745 467.080322,587.279114 
	C462.711975,583.384888 465.134125,577.160706 460.947662,572.893677 
	C460.947662,578.620850 460.947662,584.348022 460.947662,590.075256 
	C460.139893,590.170715 459.332123,590.266174 458.524353,590.361633 
	C454.288574,571.511841 450.356415,552.605469 444.193726,534.264832 
	C437.984833,515.786682 429.935547,498.237244 421.485077,481.019653 
	C419.454559,481.142120 419.308746,482.229034 419.364197,483.207336 
	C420.863159,509.656677 410.575470,532.546021 398.031281,554.840332 
	C392.907104,563.947266 387.625824,573.058533 385.255249,583.429443 
	C384.984497,584.614014 384.138611,586.355103 383.383453,586.089050 
	C379.502899,584.722412 379.829315,588.646545 377.733673,590.765320 
	C376.883453,585.193054 376.749451,580.442383 377.175171,575.559387 
	C378.917053,555.579224 384.710754,536.488953 389.617645,517.193542 
	C395.103302,495.622375 394.019257,474.132355 388.368927,452.761200 
	C384.134918,436.746826 379.393311,420.849487 377.442566,404.318939 
	C377.392487,403.894501 376.940552,403.517487 376.705048,403.162140 
	C375.048767,403.098541 374.593750,404.152832 374.443939,405.366089 
	C372.364838,422.205414 372.430603,439.058014 373.822998,455.955353 
	C374.821625,468.074249 374.487823,480.233093 373.993530,492.375580 
	C373.954285,493.340210 373.932495,494.402039 373.060242,494.988983 
	C361.448120,483.343445 360.728027,467.700653 358.046570,452.954590 
	C354.527344,433.600922 355.933014,414.399109 361.573364,395.447937 
	C367.024506,377.132538 377.177765,361.722198 389.670441,347.612823 
	C391.325531,345.743591 392.904999,343.806641 394.484406,341.872375 
	C394.634644,341.688416 394.533234,341.298889 394.568878,340.619385 
	C387.062164,345.509277 380.374847,351.023926 374.278778,357.372467 
	C372.516724,355.186188 375.232880,353.867828 374.193787,352.062775 
	C371.309357,349.633911 370.141296,354.845367 367.261444,353.806763 
	C367.668732,350.570740 371.252350,349.064575 371.800323,345.449646 
	C368.052032,347.359955 364.221497,348.263885 361.678040,351.943604 
	C360.410370,348.954041 363.559540,347.381256 362.576508,345.565033 
	C361.239807,343.372803 360.035980,346.187317 358.845703,345.035400 
	C360.091370,332.330200 369.411133,327.114716 379.720428,323.431519 
	C390.638885,319.530670 402.174194,318.842407 413.708618,318.940521 
	C417.618225,318.973785 417.691498,319.184021 418.805084,322.697174 
	C435.867310,323.313019 452.803558,323.246765 468.812927,313.456696 
	C465.199493,311.394562 462.377869,313.020905 459.902832,313.454956 
	C443.944031,316.253540 428.749786,313.117432 413.863922,307.912872 
	C403.278839,304.211975 393.160278,305.128845 383.636932,310.433502 
	C374.050110,315.773499 368.647278,315.253082 357.849792,311.281891 
	C357.920837,307.166840 361.057617,305.235352 363.951965,303.493317 
	C375.808960,296.356964 388.529114,293.918579 402.274872,296.490326 
	C411.712830,298.256073 420.952148,301.280121 430.628082,301.585693 
	C446.953735,302.101257 462.263184,298.109222 476.843506,290.885345 
	C481.903107,288.378601 487.126434,286.175385 492.375519,284.086060 
	C496.940186,282.269135 498.298157,278.644745 498.721252,274.266846 
	C499.125458,270.084167 498.826813,266.794861 494.033478,264.600525 
	C485.181549,260.548157 477.881897,241.749161 484.710602,233.841064 
	C485.627960,232.778656 486.116730,231.640686 484.830200,230.333557 
	C483.198090,228.675339 485.339874,228.687943 486.263184,227.931458 
M525.430237,280.940735 
	C526.891479,278.339325 528.468872,275.794891 529.779968,273.119904 
	C530.994324,270.642151 533.195496,268.508514 533.116272,265.097748 
	C519.807434,275.935242 515.848328,282.278931 518.168640,289.015198 
	C521.928650,287.839081 522.893005,284.145966 525.430237,280.940735 
z"/>
<path fill="#000000" opacity="1.000000" stroke="none" 
	d="
M451.948853,825.150269 
	C455.529663,825.021118 458.819061,824.710205 457.828552,820.215149 
	C452.145416,794.424377 461.543854,771.810059 472.478729,749.468079 
	C480.078644,733.940002 488.360321,718.753296 493.195770,701.953064 
	C497.853821,685.769165 498.674622,669.627319 495.343079,653.189087 
	C491.667877,635.055115 491.763489,616.861938 494.349304,598.595093 
	C496.609100,582.631165 495.430939,566.789185 492.217102,551.041016 
	C491.601349,548.023804 490.675995,544.965210 491.287506,541.839172 
	C493.289124,541.331482 494.398041,542.598633 495.341797,543.620300 
	C505.801056,554.943237 515.710449,566.571838 517.748840,582.764648 
	C518.709656,590.397217 519.137390,598.108582 518.089661,605.639282 
	C515.635742,623.276672 518.022461,640.435242 521.819702,657.554260 
	C522.321350,659.815735 522.882324,662.067444 523.280823,664.347290 
	C523.561157,665.950867 523.185669,667.941406 525.317749,668.425049 
	C527.088013,668.826599 527.931946,667.156006 528.874146,666.087341 
	C538.736877,654.900879 549.028870,644.069458 557.575806,631.785278 
	C558.529968,630.413818 559.217957,628.851013 562.555420,628.469727 
	C551.242065,646.596130 537.174316,661.482849 525.152039,677.958252 
	C541.863647,665.211060 553.385254,647.872986 565.783569,631.514832 
	C567.909241,632.146118 568.422302,632.909729 567.231567,634.467163 
	C553.628967,652.259033 540.928406,670.785950 524.732727,686.462280 
	C524.048950,687.124084 523.433838,688.046997 523.200439,688.954712 
	C520.569580,699.189575 518.973877,709.677551 515.738708,720.269165 
	C543.166138,699.972656 574.895508,687.739807 603.620789,669.948303 
	C604.625366,672.138306 602.889709,672.258362 602.123657,672.787048 
	C587.996826,682.536072 572.772949,690.360779 557.606506,698.316101 
	C543.328186,705.805603 529.434082,713.973999 516.537354,723.733215 
	C513.547546,725.995605 510.998840,728.681030 509.577209,732.077576 
	C501.664551,750.982605 490.774567,768.461365 483.264069,787.572327 
	C479.888794,796.161072 477.245758,804.880249 476.636108,814.025024 
	C476.298645,819.086731 477.262573,824.249084 477.812134,829.347534 
	C477.975159,830.859985 478.624115,832.633240 477.508667,833.651550 
	C473.464783,837.343262 474.890869,841.319458 476.212372,845.576721 
	C480.017212,857.833862 486.264679,869.145447 489.787506,881.525024 
	C492.560577,891.270020 494.432770,900.929749 491.192322,910.887268 
	C490.269043,913.724426 491.706177,914.850830 494.113159,914.498474 
	C502.645264,913.249756 511.145081,911.776794 519.645630,910.321533 
	C520.411621,910.190308 521.726257,909.565491 521.720154,909.187134 
	C521.648376,904.726196 525.374695,905.997131 528.097290,904.799622 
	C527.936462,908.702393 530.391663,907.968262 532.551025,907.450256 
	C550.584961,903.124390 568.633850,898.856384 586.625061,894.358521 
	C603.716736,890.085571 620.927002,886.447693 638.341370,883.776978 
	C639.830017,883.548645 641.285767,883.447449 642.812622,884.730286 
	C599.993042,891.542542 558.546326,904.094727 516.507996,914.290833 
	C522.078186,914.978210 527.543396,914.187561 532.807556,912.577148 
	C535.310120,911.811523 537.957275,912.069458 540.407349,910.860840 
	C541.689209,910.228577 543.559387,911.175537 544.056396,912.732971 
	C544.732849,914.852539 542.889038,914.984802 541.426270,915.421326 
	C522.449341,921.085022 502.960297,924.164856 483.501587,927.625732 
	C459.750397,931.850098 435.910553,932.653198 411.939423,932.228271 
	C405.636871,932.116577 399.342010,931.463318 393.048889,930.988647 
	C390.753448,930.815491 388.756042,929.795349 386.209717,928.309937 
	C390.928986,926.782227 395.471771,928.912109 399.769409,926.275879 
	C397.504456,920.784119 392.532135,916.609009 392.380310,909.815125 
	C395.852631,909.501404 396.616333,906.984009 396.778473,903.721497 
	C396.991577,899.434204 398.663422,895.668762 402.229645,892.616516 
	C405.504120,896.482849 407.895966,895.419434 410.088104,891.424438 
	C413.582153,885.057007 418.729828,880.634521 425.816559,878.433228 
	C430.381073,877.015442 434.910858,878.341309 440.541565,877.199707 
	C436.692810,884.649963 434.494202,891.520935 433.463531,898.683411 
	C433.083954,901.321228 431.276306,905.100403 436.230408,905.642578 
	C440.460419,906.105469 440.285522,902.689331 440.795746,899.942871 
	C441.552216,895.871094 441.104431,891.600281 442.713745,887.680542 
	C443.762970,885.125061 444.378723,882.203918 447.664886,880.868713 
	C449.781769,883.332397 452.075104,884.230896 455.715393,883.277954 
	C458.377625,882.581055 460.561920,885.801575 462.168671,888.094238 
	C464.757202,891.787781 466.825745,895.763977 467.420776,900.368713 
	C467.655518,902.185242 468.126495,904.403687 470.369659,904.396973 
	C472.771454,904.389771 472.831940,901.988342 473.056458,900.244141 
	C473.782227,894.606384 471.813812,889.388367 470.001465,884.255310 
	C467.282715,876.555115 464.277924,868.937012 464.121521,860.652710 
	C464.034271,856.031006 464.638458,851.399475 464.644348,846.772034 
	C464.652435,840.436401 462.735016,838.875854 456.666351,840.609558 
	C443.457336,844.382935 430.302917,845.524780 416.936279,841.330994 
	C401.982056,836.639038 394.522675,824.958984 396.918976,809.522888 
	C397.096466,808.379333 397.489502,807.230469 397.444000,806.097656 
	C397.196899,799.944702 396.189880,799.430359 390.747253,802.291992 
	C367.894226,814.307556 345.176788,812.448730 322.842529,801.053528 
	C305.606262,792.259399 292.459991,778.590454 280.327637,763.845398 
	C279.246735,762.531677 278.686371,760.515015 275.817444,760.166138 
	C277.217499,773.992249 281.780060,786.553528 288.251801,799.279297 
	C285.146393,798.559875 284.514740,796.465820 283.312164,795.066467 
	C280.923828,792.287415 278.941742,789.103577 274.357941,790.044067 
	C272.535706,790.417969 271.503235,788.602478 270.413300,787.376709 
	C259.190430,774.755005 252.030350,760.554993 250.304443,743.310303 
	C249.100708,731.283081 249.477081,719.405334 249.475464,707.430847 
	C249.474701,701.919800 247.204987,696.430969 246.182266,690.891785 
	C245.197937,685.560547 244.003860,680.170288 246.367645,674.307922 
	C251.888901,677.223267 255.483429,681.809021 259.248718,686.138428 
	C271.885895,700.669189 280.889313,717.689148 291.647827,733.508789 
	C303.178864,750.464478 315.140717,767.207214 333.381866,777.875183 
	C344.624512,784.450134 356.413696,788.312805 369.488831,783.465637 
	C379.288147,779.832886 385.207916,772.102783 390.573181,763.710144 
	C396.878723,753.846558 399.333862,742.573914 402.605469,731.592712 
	C406.311859,719.152222 410.832062,707.013794 415.978638,695.098206 
	C417.187134,692.300232 418.891602,689.916199 420.779816,687.666077 
	C422.427582,687.931152 420.868652,689.597656 422.371429,690.122742 
	C424.393616,688.557495 424.417511,684.973083 427.428650,683.934509 
	C428.985260,686.164124 426.336670,687.977234 427.025085,690.363647 
	C430.285004,691.397827 430.436310,688.344299 431.541718,686.658203 
	C432.664001,684.946411 432.748749,682.409180 436.525238,681.575928 
	C431.765259,689.770325 438.025299,693.594055 441.830902,699.680542 
	C435.274719,720.019775 431.410004,742.573242 422.861328,763.756958 
	C419.479370,772.137390 415.360809,780.080872 409.552002,787.064026 
	C405.302338,792.172791 405.418976,801.864136 410.112762,807.658142 
	C418.836426,818.426514 430.881195,822.735413 444.081390,824.588196 
	C446.549255,824.934570 449.063690,824.949280 451.948853,825.150269 
z"/>
<path fill="#000000" opacity="1.000000" stroke="none" 
	d="
M784.276245,879.456238 
	C782.020508,881.045288 779.403076,880.030823 776.985718,880.465271 
	C774.993042,880.823364 773.065491,881.267456 771.383728,884.061462 
	C783.075806,885.350220 794.371338,882.603027 805.532166,885.085876 
	C795.742188,886.737671 785.772766,885.573425 775.980164,886.529419 
	C766.128845,887.491089 756.377808,889.580017 747.698059,890.262756 
	C737.031250,887.679016 726.965149,886.798523 716.752014,885.957458 
	C717.669189,883.676331 720.139038,885.599731 721.092590,883.523315 
	C719.403625,880.671997 716.560852,880.393005 713.500916,880.294617 
	C704.511963,880.005798 695.579895,880.958191 686.621643,881.330322 
	C684.677429,881.411194 682.643066,881.811829 680.709473,880.222351 
	C691.824463,878.011780 703.178711,878.644226 715.177368,878.085754 
	C713.624451,872.926941 711.285522,868.307678 710.981262,863.177368 
	C710.814331,860.363403 710.003479,857.693176 713.101746,855.653198 
	C715.881104,853.823181 711.793640,850.502991 714.209534,848.344055 
	C720.752502,854.227478 720.752502,854.227478 726.238586,845.076721 
	C729.145752,846.588867 730.307434,848.792725 730.182251,852.164429 
	C729.990784,857.321472 730.617493,862.461609 732.237061,867.398132 
	C733.975647,872.697449 737.202759,874.770508 742.794617,874.315002 
	C745.002502,869.574951 741.317566,865.368774 741.403992,860.806824 
	C741.428589,859.508423 740.797119,858.210083 740.694580,856.893982 
	C740.478394,854.119385 739.585510,850.852844 742.829529,849.326965 
	C746.214050,847.735107 749.305908,849.258423 752.010010,851.478699 
	C753.915649,853.043274 754.736694,855.650940 757.025635,856.898193 
	C759.105286,853.449951 758.283264,850.636475 754.664734,848.501648 
	C751.217163,846.467590 747.379944,846.442505 743.549622,846.227966 
	C741.620117,846.119934 739.572876,846.796265 737.700745,845.608093 
	C738.157898,842.770325 740.331482,842.976868 742.298950,842.949768 
	C747.508545,842.877930 752.577393,843.717041 757.414734,845.666992 
	C760.857361,847.054688 762.187378,845.766541 761.785339,842.351929 
	C760.804199,834.018616 759.763855,825.691772 758.652954,817.374878 
	C758.504822,816.265930 758.098694,814.912720 757.324646,814.208130 
	C746.973267,804.786499 746.353882,791.800049 744.644958,779.318787 
	C743.540649,771.254150 743.198730,763.113525 744.511536,754.952393 
	C745.244507,750.396179 746.583679,747.287354 750.875610,744.249268 
	C754.375488,741.771729 755.430237,735.858398 754.264587,730.471741 
	C750.548218,713.298401 749.841125,695.837708 750.801270,678.372437 
	C751.255676,670.105713 752.609375,661.993591 750.902832,653.653625 
	C747.194092,635.528320 742.438293,617.790527 734.280579,601.081360 
	C720.297241,572.439758 701.624146,547.457458 677.146851,526.881042 
	C652.633789,506.274567 624.339478,494.025879 593.216858,487.249451 
	C561.228271,480.284454 528.827698,480.813660 496.439240,480.368378 
	C495.239960,480.351868 493.836060,481.174225 492.503235,479.491730 
	C495.410156,478.223541 497.912018,476.439819 501.256042,476.700958 
	C501.234802,476.232239 501.213531,475.763519 501.192291,475.294800 
	C493.497894,475.294800 485.803497,475.294800 478.109100,475.294800 
	C478.077789,474.825684 478.046509,474.356537 478.015198,473.887421 
	C480.218872,472.357056 482.790070,471.784912 485.466949,471.687164 
	C516.262756,470.562775 547.099792,469.633667 577.869080,471.067871 
	C610.153259,472.572723 640.893616,480.641724 668.788330,497.696960 
	C716.800476,527.052368 745.689148,570.126282 759.161926,624.161072 
	C760.241516,628.490906 760.925293,632.972351 761.250305,637.423035 
	C761.607117,642.308960 762.186340,646.449890 767.822937,648.324280 
	C771.008545,649.383667 771.333923,652.869263 771.354858,655.979980 
	C771.437622,668.262085 771.361023,680.551697 772.336609,692.806580 
	C775.417114,731.503296 785.715027,767.424255 812.999512,796.605835 
	C830.860535,815.708801 852.148682,829.986511 875.969971,840.649597 
	C883.841370,844.173157 891.671936,847.726379 900.069885,849.833313 
	C902.100342,855.335022 908.120361,853.035950 912.097961,856.059448 
	C909.973450,856.609375 908.203613,857.067505 906.263245,857.569763 
	C907.002136,858.912292 909.388306,859.237244 907.986694,861.162170 
	C909.496948,862.262817 910.623169,857.795959 912.440002,861.137756 
	C912.937561,862.052979 915.435120,861.880920 917.041870,862.213440 
	C917.177917,863.365845 916.201355,863.131470 915.740295,863.106079 
	C904.862305,862.509277 893.942810,863.090515 883.098755,863.186584 
	C864.538635,863.351196 849.083496,855.370850 833.297485,847.855103 
	C816.997131,840.094421 803.125061,828.889771 791.407654,815.229187 
	C778.240295,799.878113 769.378967,782.030823 762.709106,763.040833 
	C761.905762,760.753601 761.105408,758.465271 759.938538,756.264221 
	C759.310364,771.918457 759.167053,787.445557 760.876892,803.012573 
	C761.720947,810.697144 761.880920,818.385498 764.674500,825.722839 
	C765.496155,827.881042 766.735046,829.552063 768.129944,831.392151 
	C770.612610,834.667053 772.107483,838.939087 773.139099,843.015869 
	C775.540710,852.506531 776.753601,862.217163 775.996643,872.028809 
	C775.674438,876.205566 776.657715,878.441345 781.302307,877.732300 
	C781.865540,877.646423 782.523682,878.182678 783.552246,878.740479 
	C784.069885,879.185730 784.173035,879.320984 784.276245,879.456238 
z"/>
<path fill="#000000" opacity="1.000000" stroke="none" 
	d="
M703.857056,767.496216 
	C700.742737,767.159485 700.013611,764.304565 698.693542,762.246460 
	C690.473328,749.430298 684.535522,735.511780 679.459900,721.211731 
	C676.315308,712.352295 672.567627,703.902771 665.546875,697.283813 
	C657.892090,690.067200 648.870728,688.037598 638.762695,689.895752 
	C624.894897,692.445068 613.115845,699.708740 601.271606,706.745361 
	C597.586975,708.934448 593.266968,709.458923 589.693420,711.970154 
	C586.142456,714.465637 585.290588,717.200989 587.496948,720.842407 
	C588.654541,722.752991 589.190063,724.583130 588.918945,726.940735 
	C588.571960,729.958191 589.863647,732.953735 591.959045,734.993042 
	C601.209045,743.995178 606.612000,754.579224 606.439819,767.702637 
	C606.433716,768.166870 606.707275,768.643616 606.895569,769.095703 
	C606.946167,769.217163 607.163025,769.269348 607.905762,769.713074 
	C609.629883,764.897522 611.303711,760.317139 609.932861,755.182495 
	C615.176758,754.377136 616.935730,751.703979 616.105713,746.719666 
	C615.598816,743.675415 614.179504,740.710327 614.757568,737.310974 
	C618.464600,736.717529 619.923401,739.479614 621.426208,741.627869 
	C628.893433,752.302246 631.118896,764.117126 626.120667,776.170349 
	C616.444153,799.505066 613.798767,824.343811 609.446045,848.825256 
	C606.681763,864.372192 603.543579,867.895203 585.543518,871.182312 
	C580.162292,872.164978 574.652771,872.462341 569.132385,872.341248 
	C564.313232,872.235535 559.569824,872.615356 555.454895,869.094666 
	C554.088379,867.925415 551.690796,867.447815 549.791382,867.507324 
	C542.987000,867.720459 538.305908,864.191650 536.277710,858.415222 
	C534.025146,851.999939 535.590210,845.593506 540.468933,840.420837 
	C541.606873,839.214478 542.890869,838.127869 544.202209,837.107727 
	C545.752747,835.901550 546.927917,834.839539 549.243591,836.792664 
	C551.089539,838.349670 554.136841,838.208313 556.820618,836.918030 
	C560.670715,835.066895 564.283142,832.640381 569.762817,831.974426 
	C566.332764,829.496765 566.897766,827.164734 567.699768,824.458618 
	C570.291138,815.715393 572.971924,806.828125 573.192566,797.738831 
	C573.521179,784.204773 570.610779,771.587097 558.139282,763.392578 
	C555.268921,761.506531 550.474670,762.262329 550.368835,756.337158 
	C546.048950,760.135132 543.357971,756.415405 542.672485,754.698486 
	C540.220825,748.558105 533.961243,749.406189 529.801941,746.601929 
	C528.733459,745.881531 527.667847,747.158020 526.827148,747.941528 
	C524.654480,749.966309 522.515259,752.026978 519.857239,754.553894 
	C520.033264,749.250061 525.765320,747.114685 525.551392,741.682739 
	C519.663330,744.652466 517.368591,750.935425 510.586273,753.935303 
	C515.339233,746.083801 521.131836,740.868042 526.326782,735.201477 
	C529.008118,732.276794 532.261169,729.868042 535.314880,727.296204 
	C536.932190,725.934082 538.971130,725.088501 537.951538,722.150696 
	C537.385315,720.519287 539.436768,719.786072 540.527710,718.833130 
	C545.484985,714.503052 551.915588,712.698181 557.299988,709.057129 
	C559.190308,709.038574 557.798645,710.604797 558.590393,711.527954 
	C567.918884,707.519409 576.833679,702.458984 585.747742,697.428955 
	C595.724670,691.799072 605.692627,686.157837 615.547546,680.300781 
	C630.556885,671.380493 646.411072,667.733704 663.637634,674.426697 
	C677.684814,679.884399 686.128174,690.517944 692.333008,703.464172 
	C697.666626,714.592468 701.231812,726.401001 705.091003,738.083069 
	C707.604187,745.690979 710.719666,753.011963 714.581543,760.025208 
	C715.277344,761.288757 716.290710,762.495972 715.779175,764.176758 
	C713.423523,765.038208 711.842529,760.374573 709.670410,763.185730 
	C707.849060,765.543091 711.093201,767.678162 710.773071,770.557007 
	C707.539795,769.800537 706.104309,767.116150 704.117981,765.106262 
	C703.009888,765.738464 704.083252,766.548706 703.857056,767.496216 
M579.735474,847.089050 
	C581.287048,848.299500 581.439819,849.330383 579.552185,850.457764 
	C578.104248,851.322632 576.671509,852.513855 577.632263,854.489563 
	C578.454163,856.179626 580.197510,856.652832 581.893982,856.504272 
	C584.700134,856.258545 587.561401,856.025513 590.258179,855.277893 
	C595.410950,853.849304 598.712769,848.897095 598.265564,843.546387 
	C597.175720,830.505066 595.580078,817.544861 598.400635,804.418213 
	C599.238342,800.519287 600.794250,796.096375 599.098511,791.831116 
	C591.315674,792.537537 587.976013,795.652466 587.311035,802.701050 
	C586.572876,810.524841 584.401917,818.023315 582.181702,825.511719 
	C581.576416,827.553223 580.433960,828.775146 578.170776,829.394470 
	C574.416809,830.421814 574.842346,832.845581 577.429626,834.702271 
	C580.051941,836.583984 583.093994,837.880859 586.415100,839.685486 
	C582.828003,840.967957 579.817383,839.387207 576.773682,839.446167 
	C571.136475,839.555359 571.130249,839.235352 568.368164,842.429871 
	C572.029785,843.872925 577.540771,840.306274 579.735474,847.089050 
z"/>
<path fill="#000000" opacity="1.000000" stroke="none" 
	d="
M307.835876,899.802734 
	C305.636780,902.728333 302.652557,904.552246 301.211365,907.720093 
	C302.223114,909.507202 303.959137,909.689209 305.538513,909.596558 
	C312.811035,909.169800 320.113098,909.113098 327.213654,906.966675 
	C330.958984,905.834534 333.301270,903.465759 334.494629,900.044373 
	C336.574280,894.081909 338.366699,888.017578 340.204803,881.973206 
	C341.182770,878.757080 339.330902,877.844604 336.734772,878.593079 
	C322.543762,882.684143 309.481354,878.594299 296.552368,873.316101 
	C295.648682,872.947266 294.597046,872.751282 294.261932,871.193359 
	C296.809631,870.785645 299.326569,870.382874 301.782471,869.989807 
	C300.154602,868.345581 301.926697,866.902039 302.239258,865.323425 
	C304.795013,865.266541 307.391693,866.495911 310.799500,864.876892 
	C305.345245,861.714478 300.464844,858.884705 295.096863,855.772278 
	C297.550385,854.111145 299.207031,855.301208 300.686829,855.912109 
	C309.491699,859.547058 318.922546,860.819153 328.048889,863.218079 
	C332.147980,864.295593 335.654572,862.855042 337.267731,858.470459 
	C340.540924,849.573914 339.417816,840.842957 335.811188,832.393066 
	C333.205841,826.289001 330.392548,820.246826 326.394592,814.851318 
	C325.563568,813.729797 324.161560,812.738647 324.660126,810.586365 
	C328.243347,811.623352 329.680481,815.152344 332.324158,816.972412 
	C334.417480,817.179260 333.509430,814.769958 334.883331,814.279785 
	C337.246002,815.072693 337.491760,818.008911 339.534973,819.127625 
	C341.117889,819.082092 340.410919,816.968567 342.452606,816.652832 
	C347.774353,822.375061 350.534210,829.727600 352.350891,837.450500 
	C354.600037,847.011719 354.111389,856.579529 351.552887,866.053040 
	C350.749725,869.026978 351.531738,871.455200 354.629395,872.357117 
	C356.152374,872.800476 356.680237,873.680176 356.443542,874.810242 
	C354.092896,886.032898 352.039062,897.337463 347.457520,907.963867 
	C343.686981,916.709167 336.196960,920.427490 327.627014,922.249573 
	C312.130310,925.544312 296.446747,925.778564 280.603180,925.704285 
	C263.204498,925.622620 245.823837,924.407593 228.416840,924.983215 
	C223.659317,925.140564 218.875580,924.505188 214.096527,923.550842 
	C221.123672,921.263794 228.504135,924.135071 235.422729,922.393982 
	C242.256042,920.674377 249.433060,924.345520 256.035339,920.678040 
	C238.283844,918.880249 220.606186,919.487244 202.119965,920.842712 
	C205.017609,922.653931 207.872314,920.927612 209.860779,922.934753 
	C209.491226,924.964539 207.820663,924.339783 206.710236,924.313293 
	C191.744797,923.956665 176.782257,923.477356 161.816681,923.128113 
	C158.020798,923.039551 154.213806,923.235840 150.417084,923.412292 
	C139.590652,923.915405 128.913986,922.130493 118.175674,921.327576 
	C107.624611,920.538818 97.097176,919.437622 86.550125,918.588318 
	C84.375412,918.413269 82.611961,918.038818 81.934364,915.288635 
	C88.990883,912.756409 96.490326,912.342590 103.791069,912.212952 
	C110.780891,912.088928 117.769318,911.466187 124.753258,911.669373 
	C132.719833,911.901062 140.676605,912.490845 148.635498,912.961182 
	C173.370285,914.423035 198.106400,916.033813 222.899170,915.570496 
	C230.003723,915.437805 237.084076,917.369568 244.545624,915.934448 
	C242.346039,912.521667 238.496521,914.341797 235.519012,912.234375 
	C237.625031,911.819885 239.172211,911.515381 240.882172,911.178833 
	C241.253128,908.010620 239.041306,905.790344 238.546356,903.055603 
	C236.979904,894.400330 239.806564,887.686157 247.295929,883.249268 
	C252.339737,880.261108 257.665771,877.859131 263.376740,876.600281 
	C269.351624,875.283447 273.000763,871.594849 275.243042,866.214905 
	C277.665588,860.402405 280.109009,854.593567 282.320831,848.699585 
	C284.808533,842.070740 279.794037,829.173340 273.748199,825.122253 
	C266.738403,820.425171 258.427338,818.698669 251.135574,814.668457 
	C235.669296,806.120117 226.016510,792.858826 219.488785,776.805298 
	C215.813324,767.766235 214.951263,758.117004 212.642136,748.788147 
	C211.745483,745.165649 209.030365,742.171631 208.729675,737.390503 
	C220.216064,748.208008 225.768097,761.998169 234.199966,773.764771 
	C242.365921,785.160278 250.458420,796.603271 261.728851,805.196472 
	C269.133148,810.841980 277.295258,815.270813 286.916138,818.133606 
	C284.871460,819.966431 281.925659,819.122009 281.160522,821.494873 
	C280.384613,823.901245 282.300842,825.537659 283.146271,827.449707 
	C285.486786,832.742859 286.928864,838.358704 285.888214,843.978760 
	C284.652618,850.651550 284.761993,857.079041 286.531830,863.535767 
	C288.509125,870.749207 284.640320,875.915894 280.560242,881.031738 
	C279.768982,882.023804 278.148315,882.356262 278.195068,884.704285 
	C283.253021,886.039307 288.941223,885.880981 295.303864,888.999695 
	C283.858948,889.773499 273.438721,890.205750 269.008972,901.538757 
	C269.648163,902.928528 270.597412,903.116211 271.293121,902.731812 
	C275.834869,900.222534 280.394287,899.011658 285.579926,900.959412 
	C287.627991,901.728577 289.121033,899.482483 290.821899,898.528931 
	C297.215240,894.945129 303.508179,890.941650 311.736053,894.169678 
	C310.425293,896.075684 309.239502,897.799927 307.835876,899.802734 
z"/>
<path fill="#000000" opacity="1.000000" stroke="none" 
	d="
M350.648193,196.296539 
	C343.372406,196.478348 336.983856,195.406509 331.842926,190.293930 
	C327.082214,185.559433 322.121094,185.735046 316.684479,189.507874 
	C311.690948,192.973221 306.329163,195.907852 301.093994,199.097961 
	C300.120087,197.580750 301.416992,196.844833 302.114655,196.112381 
	C311.048920,186.732681 320.001740,177.370193 329.013611,168.065109 
	C336.432709,160.404602 345.386597,156.991135 356.069244,158.676010 
	C360.653870,159.399109 364.452576,161.696609 366.073059,166.007935 
	C369.980591,176.404053 376.568726,184.361450 386.081573,189.995819 
	C386.756958,190.395859 387.432404,191.011093 387.308075,192.384445 
	C381.868011,191.496429 376.422028,190.711304 371.026154,189.667358 
	C369.265198,189.326675 367.731934,189.280197 366.304382,190.344101 
	C361.774445,193.720123 356.450043,195.025146 350.648193,196.296539 
z"/>
<path fill="#000000" opacity="1.000000" stroke="none" 
	d="
M392.756287,676.921326 
	C398.384369,664.873352 404.560303,653.629822 416.178925,646.822998 
	C424.278992,642.077515 432.773071,641.463135 441.266785,646.059631 
	C443.468689,647.251221 445.467255,648.731201 446.483124,651.391724 
	C445.986237,651.540283 445.495972,651.875122 445.176178,651.755188 
	C431.708740,646.706543 423.975861,649.483154 415.217926,661.630920 
	C405.431976,675.204590 402.218567,691.249084 397.554077,706.742004 
	C395.328369,714.134521 393.914001,721.771362 392.045868,729.661743 
	C389.068787,727.337158 388.403809,728.962830 388.006042,731.240784 
	C386.798370,738.156982 384.660858,744.943542 385.143463,752.096252 
	C385.158783,752.323608 384.762756,752.578735 383.802460,753.717224 
	C380.284302,726.889221 382.059937,701.613525 392.756287,676.921326 
z"/>
<path fill="#000000" opacity="1.000000" stroke="none" 
	d="
M380.634521,889.977905 
	C387.031219,877.559570 391.509949,864.803284 395.854095,851.869812 
	C395.988953,852.495605 396.372986,853.190918 396.220764,853.736633 
	C394.337555,860.489014 397.533173,867.315369 395.537689,874.228638 
	C394.150635,879.033997 395.869934,879.907593 400.924622,879.132324 
	C405.116272,878.489441 409.460175,876.163269 413.960693,879.319031 
	C397.096741,885.690002 389.192963,896.379883 388.620422,913.227051 
	C379.713318,912.351929 376.379486,902.914490 380.634521,889.977905 
z"/>
<path fill="#000000" opacity="1.000000" stroke="none" 
	d="
M602.804077,896.702759 
	C613.488342,893.050110 624.386658,892.737854 634.973572,890.762329 
	C650.317444,887.899170 665.911865,886.784058 681.437805,885.519897 
	C689.041382,884.900818 696.823853,884.121216 704.597046,885.865601 
	C678.108459,889.285767 651.428650,890.717224 625.093384,895.253296 
	C598.627136,899.811890 572.992615,907.750488 546.612488,913.899353 
	C546.485291,911.124268 548.072632,910.353760 549.835938,909.841980 
	C564.967285,905.449585 580.419312,902.383484 595.735535,898.754150 
	C597.989136,898.220154 600.184082,897.438721 602.804077,896.702759 
z"/>
<path fill="#000000" opacity="1.000000" stroke="none" 
	d="
M321.497284,146.392883 
	C330.604736,139.581909 340.421387,136.119812 351.551453,136.722992 
	C358.710266,137.110962 360.788300,138.868866 361.523895,145.500977 
	C361.792999,147.927322 360.920807,149.425415 358.213928,148.927521 
	C353.005585,147.969482 347.678314,147.826859 342.586609,145.995010 
	C338.259827,144.438324 333.993927,146.107330 330.075134,147.833237 
	C325.794678,149.718399 321.466675,151.043121 316.588806,151.442047 
	C317.042297,148.598526 319.757202,148.197906 321.497284,146.392883 
z"/>
<path fill="#000000" opacity="1.000000" stroke="none" 
	d="
M783.809692,878.849243 
	C789.176758,876.108704 795.116821,877.574463 800.788391,877.339050 
	C807.863342,877.045349 815.006836,877.740173 822.156738,877.352905 
	C825.367065,877.179016 828.644043,878.236816 831.916992,878.739685 
	C832.003784,880.131775 830.956421,879.995178 830.314758,880.000061 
	C815.850830,880.110046 801.386536,880.182739 786.922302,880.224487 
	C786.290161,880.226318 785.657043,879.867554 784.650269,879.566528 
	C784.173035,879.320984 784.069885,879.185730 783.809692,878.849243 
z"/>
<path fill="#000000" opacity="1.000000" stroke="none" 
	d="
M322.917267,202.235107 
	C321.155487,200.986053 319.700653,199.932297 318.509186,196.775101 
	C328.759125,201.271652 338.318634,204.282120 348.395996,205.427933 
	C339.514679,208.785065 331.190247,207.281845 322.917267,202.235107 
z"/>
<path fill="#000000" opacity="1.000000" stroke="none" 
	d="
M674.359253,562.743530 
	C680.413208,568.574951 684.955017,575.125488 689.577820,581.614685 
	C689.176147,581.936829 688.774475,582.258972 688.372803,582.581055 
	C682.108337,574.965332 675.843933,567.349609 669.089539,559.138184 
	C671.946655,559.634460 672.778015,561.406799 674.359253,562.743530 
z"/>
<path fill="#000000" opacity="1.000000" stroke="none" 
	d="
M306.010132,886.988892 
	C301.514160,885.891968 297.393829,884.914185 292.907776,883.849609 
	C298.034515,881.832275 311.954498,884.798706 317.229767,889.017151 
	C313.182770,889.163940 309.836273,887.791382 306.010132,886.988892 
z"/>
<path fill="#000000" opacity="1.000000" stroke="none" 
	d="
M673.508057,879.639893 
	C675.497437,879.835205 677.190063,878.882812 678.744873,880.029968 
	C675.989746,881.998108 658.802368,883.709717 653.348694,881.978638 
	C660.865051,881.096436 666.981445,880.378540 673.508057,879.639893 
z"/>
<path fill="#000000" opacity="1.000000" stroke="none" 
	d="
M814.291748,883.679810 
	C819.282593,883.686829 823.818481,883.686829 828.354431,883.686829 
	C828.356384,884.200317 828.358398,884.713867 828.360413,885.227356 
	C822.052246,887.313782 815.571777,885.283569 808.525208,886.364441 
	C810.159180,883.124146 812.181213,883.922729 814.291748,883.679810 
z"/>
<path fill="#000000" opacity="1.000000" stroke="none" 
	d="
M714.367859,885.103760 
	C712.584045,888.489441 710.162964,887.140015 707.246033,886.564087 
	C709.442444,883.659790 711.550537,882.872925 714.367859,885.103760 
z"/>
</svg>